<svg xmlns="http://www.w3.org/2000/svg" viewBox="0 0 640 480" preserveAspectRatio="xMidYMid slice">
  <defs>
    <linearGradient id="bg" x1="0" y1="0" x2="1" y2="1"><stop stop-color="#d8d2c8"/><stop offset="1" stop-color="#9b8f82"/></linearGradient>
    <radialGradient id="plate" cx="50%" cy="50%" r="55%"><stop stop-color="#f8f4ea"/><stop offset="1" stop-color="#8f867b"/></radialGradient>
    <filter id="s"><feDropShadow dx="0" dy="18" stdDeviation="20" flood-color="#30231a" flood-opacity=".25"/></filter>
  </defs>
  <rect width="640" height="480" fill="url(#bg)"/>
  <circle cx="320" cy="246" r="178" fill="url(#plate)" filter="url(#s)"/>
  <circle cx="320" cy="246" r="126" fill="#e9d6ae" opacity=".88"/>
  <g fill="none" stroke="#c89742" stroke-width="13" stroke-linecap="round" opacity=".95">
    <path d="M208 236c80-82 178 65 249-8"/><path d="M193 273c105-80 178 72 265-28"/><path d="M228 196c69 83 154-66 219 30"/><path d="M226 305c70-42 125 32 191-16"/><path d="M263 175c42 78 123-34 166 40"/>
  </g>
  <g fill="#efe5c7" opacity=".9">
    <ellipse cx="268" cy="226" rx="28" ry="15" transform="rotate(-26 268 226)"/>
    <ellipse cx="392" cy="253" rx="29" ry="15" transform="rotate(24 392 253)"/>
    <ellipse cx="333" cy="188" rx="28" ry="14" transform="rotate(-8 333 188)"/>
  </g>
  <g fill="#70613f" opacity=".75">
    <circle cx="255" cy="305" r="5"/><circle cx="420" cy="221" r="4"/><circle cx="355" cy="318" r="4"/><circle cx="304" cy="182" r="3"/>
  </g>
</svg>
